<?xml version="1.0" encoding="utf-8"?>
<svg xmlns="http://www.w3.org/2000/svg"
	xmlns:xlink="http://www.w3.org/1999/xlink"
	width="159px" height="155px" viewBox="0 0 159 155">
<style type="text/css"><![CDATA[
.style0 {
  font-size: 16px;
  font-family: "Raleway-Bold";
  fill: rgb(255,255,255);
}
.style1 {
  font-size: 30px;
  font-family: "Raleway-Bold";
  fill: rgb(255,255,255);
}
]]></style>
<g><text transform="translate(0.83,110.87)"><tspan x="0.00 10.35 20.88 29.63 34.26 43.98 52.66 56.85 67.20 76.94 86.69 98.51 109.66 120.99 129.65 138.33" fill="rgb(255,255,255)" class="style0">ACTIVE ACCOUNTS</tspan><tspan y="40.00" x="0.00 31.80 47.19 62.58 77.97" fill="rgb(255,255,255)" class="style1">     1400</tspan></text><path fillRule="evenodd" d="M 89.71 52.37C 89.71 52.37 86.99 47.18 86.01 42.95 84.8 36.94 94.96 28.67 89.25 22.1 88.31 21.28 91.15 16.75 90.46 15.56 90 16.88 88.44 19 88.44 19 88.44 19 88.37 12.61 87.1 11.2 87.42 13.72 87.23 16.3 87.23 16.3 87.23 16.3 85.29 10.8 83.36 9.98 85.36 11.93 85.27 14.92 85.27 14.92 85.27 14.92 82.03 8.78 77.53 8.89 80.82 10.67 81.62 13.2 81.62 13.2 81.62 13.2 60.32 10.33 64.19 2.17 61.18 2.92 61.18 11.13 61.18 11.13 61.18 11.13 58.24 6.19 63.15-0.01 52.93 6.37 56.85 17.8 56.85 17.8 56.85 17.8 54.66 17.62 53.5 9.58 51.25 19.46 57.55 24.63 57.55 24.63 57.55 24.63 55.06 28.99 56.45 31.06 57.83 33.13 54.6 37.78 54.66 39.27 54.71 40.77 57.08 40.6 57.08 40.6 57.08 40.6 56.16 43.07 58.18 43.35 57.72 43.52 56.91 45.13 59.22 46.05 58.53 46.22 57.14 54.26 67.07 49.21 70.77 51.1 72.79 60.01 72.79 60.01 72.79 60.01 89.71 52.37 89.71 52.37Z" fill="rgb(255,255,255)"/></g></svg>