<?xml version="1.0" encoding="utf-8"?>
<svg xmlns="http://www.w3.org/2000/svg"
	xmlns:xlink="http://www.w3.org/1999/xlink"
	width="149px" height="141px" viewBox="0 0 149 141">
<style type="text/css"><![CDATA[
.style0 {
  font-size: 16px;
  font-family: "Raleway-Bold";
  fill: rgb(255,255,255);
}
.style1 {
  font-size: 30px;
  font-family: "Raleway-Bold";
  fill: rgb(255,255,255);
}
]]></style>
<g><path fillRule="evenodd" d="M 92.73 33.16C 92.73 33.16 84.19 42.05 84.19 42.05 83.81 42.45 83.14 42.52 82.7 42.19 82.7 42.19 75.63 37.04 75.63 37.04 75.19 36.71 75.1 36.09 75.43 35.66 75.43 35.66 76.34 34.47 76.34 34.47 76.67 34.03 77.3 33.94 77.75 34.26 77.75 34.26 82.28 37.54 82.28 37.54 82.72 37.87 83.39 37.8 83.77 37.4 83.77 37.4 90.16 30.8 90.16 30.8 90.54 30.4 91.18 30.38 91.58 30.75 91.58 30.75 92.68 31.76 92.68 31.76 93.09 32.13 93.11 32.76 92.73 33.16ZM 87.13 25.85C 86.25 25.59 85.41 25.44 84.12 25.44 77.96 25.44 72.96 30.36 72.96 36.44 72.96 38.55 73.56 40.51 74.6 42.18 74.71 42.36 74.91 42.57 74.54 42.89 71.72 44.97 69.62 46 68.32 46 64.25 46 48 33.82 48 20.85 48 20.71 48.2 7.43 48.24 7.16 48.4 6.08 48.91 6.17 49.22 6.18 51.91 6.3 54.78 6.46 57.77 5.61 63.08 4.1 66.58-0 68.32-0 70.11-0 74.83 4.1 80.14 5.61 82.69 6.34 85.12 6.34 87.51 6.32 87.84 6.32 88.58 6.32 88.58 7.6 88.58 7.76 88.64 20.75 88.64 20.85 88.64 22.38 88.41 23.89 88.01 25.38 87.95 25.61 87.72 26.09 87.13 25.85Z" fill="rgb(255,255,255)"/><text transform="translate(0.83,96.87)"><tspan x="0.00 10.59 19.90 29.22 33.41 44.86 56.69 71.02 82.35 90.08 101.68 112.27 123.73 132.41" fill="rgb(255,255,255)" class="style0">APP DOWNLOADS</tspan><tspan y="40.00" x="0.00 25.44 40.83 56.22 71.61" fill="rgb(255,255,255)" class="style1">    2400</tspan></text></g></svg>