<?xml version="1.0" encoding="utf-8"?>
<svg xmlns="http://www.w3.org/2000/svg"
	xmlns:xlink="http://www.w3.org/1999/xlink"
	width="46px" height="33px" viewBox="0 0 46 33">
<path fillRule="evenodd" d="M 30.98 0.5C 30.35-0.17 29.31-0.17 28.66 0.5 28.03 1.13 28.03 2.2 28.66 2.84 28.66 2.84 40.41 14.83 40.41 14.83 40.41 14.83 1.62 14.83 1.62 14.83 0.72 14.83-0 15.56-0 16.49-0 17.41 0.72 18.17 1.62 18.17 1.62 18.17 40.41 18.17 40.41 18.17 40.41 18.17 28.66 30.14 28.66 30.14 28.03 30.8 28.03 31.87 28.66 32.5 29.31 33.17 30.35 33.17 30.98 32.5 30.98 32.5 45.51 17.67 45.51 17.67 46.16 17.03 46.16 15.97 45.51 15.33 45.51 15.33 30.98 0.5 30.98 0.5Z" fill="rgb(65,75,89)"/></svg>