<?xml version="1.0" encoding="utf-8"?>
<svg xmlns="http://www.w3.org/2000/svg"
	xmlns:xlink="http://www.w3.org/1999/xlink"
	width="46px" height="33px" viewBox="0 0 46 33">
<path fillRule="evenodd" d="M 15.02 0.46C 15.65-0.2 16.69-0.2 17.34 0.46 17.97 1.1 17.97 2.17 17.34 2.81 17.34 2.81 5.59 14.81 5.59 14.81 5.59 14.81 44.38 14.81 44.38 14.81 45.28 14.81 46 15.55 46 16.47 46 17.39 45.28 18.15 44.38 18.15 44.38 18.15 5.59 18.15 5.59 18.15 5.59 18.15 17.34 30.14 17.34 30.14 17.97 30.8 17.97 31.86 17.34 32.5 16.69 33.17 15.65 33.17 15.02 32.5 15.02 32.5 0.49 17.66 0.49 17.66-0.16 17.02-0.16 15.95 0.49 15.31 0.49 15.31 15.02 0.46 15.02 0.46Z" fill="rgb(65,75,89)"/></svg>