<?xml version="1.0" encoding="utf-8"?>
<svg xmlns="http://www.w3.org/2000/svg"
	xmlns:xlink="http://www.w3.org/1999/xlink"
	width="130px" height="142px" viewBox="0 0 130 142">
<style type="text/css"><![CDATA[
.style0 {
  font-size: 16px;
  font-family: "Raleway-Bold";
  fill: rgb(255,255,255);
}
.style1 {
  font-size: 30px;
  font-family: "Raleway-Bold";
  fill: rgb(255,255,255);
}
]]></style>
<g><path fillRule="evenodd" d="M 69 46C 69 46 65.64 42.5 65.64 42.5 53.16 31 45 23.25 45 13.75 45 6 50.76-0 58.2-0 62.28-0 66.36 2 69 5.25 71.64 2 75.72-0 79.8-0 87.24-0 93 6 93 13.75 93 23.25 84.84 31 72.36 42.5 72.36 42.5 69 46 69 46Z" fill="rgb(255,255,255)"/><text transform="translate(-1.17,96.87)"><tspan x="0.00 11.23 21.82 31.14 40.30 49.76 53.95 64.03 72.38 77.01 85.68 97.01 105.66 114.35" fill="rgb(255,255,255)" class="style0">HAPPY CLIENTS</tspan><tspan y="40.00" x="0.00 25.44 40.83 56.22 71.61" fill="rgb(255,255,255)" class="style1">    1900</tspan></text></g></svg>