<?xml version="1.0" encoding="utf-8"?>
<svg xmlns="http://www.w3.org/2000/svg"
	xmlns:xlink="http://www.w3.org/1999/xlink"
	width="152px" height="142px" viewBox="0 0 152 142">
<style type="text/css"><![CDATA[
.style0 {
  font-size: 16px;
  font-family: "Raleway-Bold";
  fill: rgb(255,255,255);
}
.style1 {
  font-size: 30px;
  font-family: "Raleway-Bold";
  fill: rgb(255,255,255);
}
]]></style>
<g><text transform="translate(-0.17,96.87)"><tspan x="0.00 8.75 20.58 29.33 39.92 48.27 52.46 63.06 72.37 81.68 85.87 95.28 105.87 114.62 123.29 131.98" fill="rgb(255,255,255)" class="style0">TOTAL APP RATES</tspan><tspan y="40.00" x="0.00 25.44 40.83 56.22 71.61" fill="rgb(255,255,255)" class="style1">    3400</tspan></text><path fillRule="evenodd" d="M 92.91 15.67C 92.91 15.67 79.69 14.41 79.69 14.41 78.86 14.34 78.14 13.8 77.8 13 77.8 13 73.06 1.42 73.06 1.42 72.31-0.49 69.62-0.49 68.86 1.42 68.86 1.42 64.16 13 64.16 13 63.86 13.8 63.1 14.34 62.27 14.41 62.27 14.41 49.05 15.67 49.05 15.67 47.08 15.86 46.28 18.35 47.76 19.68 47.76 19.68 57.72 28.51 57.72 28.51 58.37 29.08 58.63 29.92 58.44 30.76 58.44 30.76 55.45 43.14 55.45 43.14 54.99 45.09 57.08 46.7 58.82 45.67 58.82 45.67 69.84 39.13 69.84 39.13 70.56 38.71 71.44 38.71 72.15 39.13 72.15 39.13 83.18 45.67 83.18 45.67 84.92 46.7 87 45.13 86.55 43.14 86.55 43.14 83.6 30.76 83.6 30.76 83.41 29.92 83.67 29.08 84.31 28.51 84.31 28.51 94.28 19.68 94.28 19.68 95.72 18.35 94.88 15.86 92.91 15.67Z" fill="rgb(255,255,255)"/></g></svg>